<svg xmlns="http://www.w3.org/2000/svg" viewBox="0 0 825 724"><defs><filter id="spray" x="-10%" y="-10%" width="120%" height="120%"><feGaussianBlur stdDeviation="2.2"/></filter></defs><path d="M 742.5,63.6 L 500.9,185.0 L 500.9,8.2 L 371.2,143.8 L 292.3,69.5 L 239.2,196.8 L 127.3,162.6 L 148.5,277.0 L 3.5,434.9 L 119.0,470.2 L 57.8,576.3 L 186.2,523.3 L 180.3,680.0 L 294.6,581.0 L 390.1,707.1 L 460.8,537.4 L 216.9,625.8 L 228.6,496.2 L 104.9,533.9 L 147.3,447.9 L 44.8,423.1 L 153.2,205.1 L 460.8,75.4 L 458.5,234.5 L 643.5,148.5 L 541.0,297.0 L 715.4,299.4 L 598.7,398.4 L 668.2,491.5 L 467.9,578.7 L 598.7,665.9 L 555.1,544.5 L 767.2,490.3 L 644.7,385.4 L 800.2,256.9 L 599.9,259.3 Z M 399.5,654.1 L 403.1,652.9 L 404.2,656.5 L 400.7,657.6 Z M 594.0,638.8 L 597.5,637.6 L 598.7,641.1 L 595.2,642.3 Z M 328.8,631.7 L 332.4,632.9 L 331.2,638.8 L 327.6,637.6 Z M 214.5,627.0 L 220.4,627.0 L 221.6,631.7 L 215.7,632.9 Z M 185.0,627.0 L 188.6,625.8 L 189.8,629.4 L 186.2,630.5 Z M 579.9,592.8 L 583.4,594.0 L 583.4,602.2 L 579.9,601.1 Z M 298.2,586.9 L 302.9,585.8 L 304.1,589.3 L 299.4,590.5 Z M 513.9,585.8 L 517.4,584.6 L 518.6,588.1 L 515.0,589.3 Z M 513.9,578.7 L 517.4,577.5 L 518.6,582.2 L 515.0,583.4 Z M 509.1,575.1 L 510.3,578.7 L 502.1,584.6 L 499.7,579.9 Z M 63.6,556.3 L 67.2,555.1 L 68.4,558.6 L 64.8,559.8 Z M 631.7,529.2 L 635.2,528.0 L 636.4,531.5 L 632.9,532.7 Z M 694.2,518.6 L 697.7,517.4 L 698.9,520.9 L 695.4,522.1 Z M 684.8,517.4 L 689.5,518.6 L 687.1,524.5 L 683.6,523.3 Z M 189.8,499.7 L 193.3,498.5 L 194.5,502.1 L 190.9,503.2 Z M 744.9,496.2 L 748.4,495.0 L 749.6,498.5 L 746.0,499.7 Z M 673.0,485.6 L 676.5,484.4 L 677.7,487.9 L 674.1,489.1 Z M 665.9,480.9 L 673.0,479.7 L 674.1,484.4 L 667.1,485.6 Z M 678.9,477.3 L 682.4,478.5 L 681.2,485.6 L 677.7,484.4 Z M 670.6,472.6 L 674.1,473.8 L 673.0,479.7 L 669.4,478.5 Z M 662.4,462.0 L 665.9,460.8 L 667.1,464.4 L 663.5,465.5 Z M 46.0,427.8 L 49.5,426.6 L 50.7,430.2 L 47.1,431.4 Z M 687.1,421.9 L 690.6,420.8 L 691.8,424.3 L 688.3,425.5 Z M 682.4,421.9 L 685.9,420.8 L 687.1,424.3 L 683.6,425.5 Z M 630.5,418.4 L 635.2,417.2 L 636.4,420.8 L 631.7,421.9 Z M 668.2,413.7 L 671.8,412.5 L 673.0,416.0 L 669.4,417.2 Z M 618.8,413.7 L 622.3,412.5 L 623.5,417.2 L 619.9,418.4 Z M 707.1,341.8 L 710.7,340.6 L 711.9,344.1 L 708.3,345.3 Z M 74.2,335.9 L 77.8,334.7 L 79.0,338.2 L 75.4,339.4 Z M 696.5,319.4 L 700.1,318.2 L 701.2,321.8 L 697.7,322.9 Z M 48.3,305.2 L 51.9,304.1 L 53.0,307.6 L 49.5,308.8 Z M 700.1,295.8 L 706.0,294.6 L 707.1,298.2 L 701.2,299.4 Z M 799.1,285.2 L 802.6,284.0 L 803.8,288.8 L 800.2,289.9 Z M 805.0,279.3 L 808.5,278.1 L 809.7,281.7 L 806.1,282.9 Z M 800.2,273.4 L 805.0,272.2 L 806.1,275.8 L 801.4,277.0 Z M 546.9,273.4 L 550.4,272.2 L 552.8,277.0 L 548.0,278.1 Z M 797.9,265.2 L 801.4,264.0 L 802.6,268.7 L 799.1,269.9 Z M 636.4,264.0 L 640.0,262.8 L 641.1,267.5 L 637.6,268.7 Z M 595.2,262.8 L 601.1,261.6 L 603.4,266.4 L 597.5,267.5 Z M 136.7,249.9 L 140.2,248.7 L 141.4,252.2 L 137.9,253.4 Z M 165.0,240.4 L 168.5,239.2 L 169.7,242.8 L 166.2,244.0 Z M 466.7,226.3 L 470.2,225.1 L 471.4,228.6 L 467.9,229.8 Z M 640.0,196.8 L 643.5,195.6 L 644.7,199.2 L 641.1,200.4 Z M 206.2,186.2 L 211.0,185.0 L 212.1,188.6 L 207.4,189.8 Z M 495.0,182.7 L 498.5,183.9 L 497.4,189.8 L 492.6,188.6 Z M 115.5,179.1 L 119.0,178.0 L 120.2,181.5 L 116.7,182.7 Z M 182.7,178.0 L 186.2,176.8 L 188.6,181.5 L 183.9,182.7 Z M 167.4,172.1 L 170.9,173.2 L 168.5,179.1 L 165.0,178.0 Z M 155.6,168.5 L 161.5,167.4 L 162.6,170.9 L 156.8,173.2 Z M 287.6,156.8 L 291.1,155.6 L 292.3,159.1 L 288.8,160.3 Z M 643.5,146.1 L 647.0,145.0 L 648.2,148.5 L 644.7,149.7 Z M 484.4,143.8 L 487.9,142.6 L 489.1,146.1 L 485.6,147.3 Z M 636.4,142.6 L 640.0,141.4 L 641.1,146.1 L 637.6,147.3 Z M 385.4,126.1 L 388.9,124.9 L 390.1,128.5 L 386.6,129.6 Z" fill="#ff007e" fill-rule="evenodd" opacity=".22" filter="url(#spray)"/><path d="M 742.5,63.6 L 500.9,185.0 L 500.9,8.2 L 371.2,143.8 L 292.3,69.5 L 239.2,196.8 L 127.3,162.6 L 148.5,277.0 L 3.5,434.9 L 119.0,470.2 L 57.8,576.3 L 186.2,523.3 L 180.3,680.0 L 294.6,581.0 L 390.1,707.1 L 460.8,537.4 L 216.9,625.8 L 228.6,496.2 L 104.9,533.9 L 147.3,447.9 L 44.8,423.1 L 153.2,205.1 L 460.8,75.4 L 458.5,234.5 L 643.5,148.5 L 541.0,297.0 L 715.4,299.4 L 598.7,398.4 L 668.2,491.5 L 467.9,578.7 L 598.7,665.9 L 555.1,544.5 L 767.2,490.3 L 644.7,385.4 L 800.2,256.9 L 599.9,259.3 Z M 399.5,654.1 L 403.1,652.9 L 404.2,656.5 L 400.7,657.6 Z M 594.0,638.8 L 597.5,637.6 L 598.7,641.1 L 595.2,642.3 Z M 328.8,631.7 L 332.4,632.9 L 331.2,638.8 L 327.6,637.6 Z M 214.5,627.0 L 220.4,627.0 L 221.6,631.7 L 215.7,632.9 Z M 185.0,627.0 L 188.6,625.8 L 189.8,629.4 L 186.2,630.5 Z M 579.9,592.8 L 583.4,594.0 L 583.4,602.2 L 579.9,601.1 Z M 298.2,586.9 L 302.9,585.8 L 304.1,589.3 L 299.4,590.5 Z M 513.9,585.8 L 517.4,584.6 L 518.6,588.1 L 515.0,589.3 Z M 513.9,578.7 L 517.4,577.5 L 518.6,582.2 L 515.0,583.4 Z M 509.1,575.1 L 510.3,578.7 L 502.1,584.6 L 499.7,579.9 Z M 63.6,556.3 L 67.2,555.1 L 68.4,558.6 L 64.8,559.8 Z M 631.7,529.2 L 635.2,528.0 L 636.4,531.5 L 632.9,532.7 Z M 694.2,518.6 L 697.7,517.4 L 698.9,520.9 L 695.4,522.1 Z M 684.8,517.4 L 689.5,518.6 L 687.1,524.5 L 683.6,523.3 Z M 189.8,499.7 L 193.3,498.5 L 194.5,502.1 L 190.9,503.2 Z M 744.9,496.2 L 748.4,495.0 L 749.6,498.5 L 746.0,499.7 Z M 673.0,485.6 L 676.5,484.4 L 677.7,487.9 L 674.1,489.1 Z M 665.9,480.9 L 673.0,479.7 L 674.1,484.4 L 667.1,485.6 Z M 678.9,477.3 L 682.4,478.5 L 681.2,485.6 L 677.7,484.4 Z M 670.6,472.6 L 674.1,473.8 L 673.0,479.7 L 669.4,478.5 Z M 662.4,462.0 L 665.9,460.8 L 667.1,464.4 L 663.5,465.5 Z M 46.0,427.8 L 49.5,426.6 L 50.7,430.2 L 47.1,431.4 Z M 687.1,421.9 L 690.6,420.8 L 691.8,424.3 L 688.3,425.5 Z M 682.4,421.9 L 685.9,420.8 L 687.1,424.3 L 683.6,425.5 Z M 630.5,418.4 L 635.2,417.2 L 636.4,420.8 L 631.7,421.9 Z M 668.2,413.7 L 671.8,412.5 L 673.0,416.0 L 669.4,417.2 Z M 618.8,413.7 L 622.3,412.5 L 623.5,417.2 L 619.9,418.4 Z M 707.1,341.8 L 710.7,340.6 L 711.9,344.1 L 708.3,345.3 Z M 74.2,335.9 L 77.8,334.7 L 79.0,338.2 L 75.4,339.4 Z M 696.5,319.4 L 700.1,318.2 L 701.2,321.8 L 697.7,322.9 Z M 48.3,305.2 L 51.9,304.1 L 53.0,307.6 L 49.5,308.8 Z M 700.1,295.8 L 706.0,294.6 L 707.1,298.2 L 701.2,299.4 Z M 799.1,285.2 L 802.6,284.0 L 803.8,288.8 L 800.2,289.9 Z M 805.0,279.3 L 808.5,278.1 L 809.7,281.7 L 806.1,282.9 Z M 800.2,273.4 L 805.0,272.2 L 806.1,275.8 L 801.4,277.0 Z M 546.9,273.4 L 550.4,272.2 L 552.8,277.0 L 548.0,278.1 Z M 797.9,265.2 L 801.4,264.0 L 802.6,268.7 L 799.1,269.9 Z M 636.4,264.0 L 640.0,262.8 L 641.1,267.5 L 637.6,268.7 Z M 595.2,262.8 L 601.1,261.6 L 603.4,266.4 L 597.5,267.5 Z M 136.7,249.9 L 140.2,248.7 L 141.4,252.2 L 137.9,253.4 Z M 165.0,240.4 L 168.5,239.2 L 169.7,242.8 L 166.2,244.0 Z M 466.7,226.3 L 470.2,225.1 L 471.4,228.6 L 467.9,229.8 Z M 640.0,196.8 L 643.5,195.6 L 644.7,199.2 L 641.1,200.4 Z M 206.2,186.2 L 211.0,185.0 L 212.1,188.6 L 207.4,189.8 Z M 495.0,182.7 L 498.5,183.9 L 497.4,189.8 L 492.6,188.6 Z M 115.5,179.1 L 119.0,178.0 L 120.2,181.5 L 116.7,182.7 Z M 182.7,178.0 L 186.2,176.8 L 188.6,181.5 L 183.9,182.7 Z M 167.4,172.1 L 170.9,173.2 L 168.5,179.1 L 165.0,178.0 Z M 155.6,168.5 L 161.5,167.4 L 162.6,170.9 L 156.8,173.2 Z M 287.6,156.8 L 291.1,155.6 L 292.3,159.1 L 288.8,160.3 Z M 643.5,146.1 L 647.0,145.0 L 648.2,148.5 L 644.7,149.7 Z M 484.4,143.8 L 487.9,142.6 L 489.1,146.1 L 485.6,147.3 Z M 636.4,142.6 L 640.0,141.4 L 641.1,146.1 L 637.6,147.3 Z M 385.4,126.1 L 388.9,124.9 L 390.1,128.5 L 386.6,129.6 Z" fill="#ff007e" fill-rule="evenodd" opacity=".92"/></svg>